<svg xmlns="http://www.w3.org/2000/svg" xmlns:xlink="http://www.w3.org/1999/xlink" xml:space="preserve" version="1.1" style="shape-rendering:geometricPrecision; text-rendering:geometricPrecision; image-rendering:optimizeQuality; fill-rule:evenodd; clip-rule:evenodd" width="40" height="40" viewBox="154 147 1692 1706">
 <defs>
  <style type="text/css">
   <![CDATA[
    .fil2 {fill:#2B3E4D}
    .fil1 {fill:#3B566A}
    .fil4 {fill:#5C9CEE}
    .fil0 {fill:#6CBFF8}
    .fil3 {fill:white}
   ]]>
  </style>
 </defs>
 <g id="Layer_x0020_1">
  <metadata id="CorelCorpID_0Corel-Layer"/>
  <path class="fil0" d="M1627 1138l-160 0 -1 0 -933 0 -72 0 -88 0c-121,0 -219,-98 -219,-219 0,-112 84,-204 192,-217 -8,-23 -12,-48 -12,-72 0,-118 93,-214 210,-219 0,-146 119,-264 265,-264 110,0 207,67 247,166 34,-21 74,-33 116,-33 94,0 177,61 207,148 26,-11 55,-17 84,-17 121,0 219,98 219,219 0,25 -4,50 -12,74 101,20 176,109 176,215 0,121 -98,219 -219,219z"/>
  <path class="fil1" d="M1085 1853l-170 0c-11,0 -20,-8 -22,-19l-31 -189c-42,-15 -81,-37 -115,-66l-179 68c-10,4 -22,-1 -28,-10l-84 -147c-6,-10 -4,-22 5,-29l148 -121c-4,-22 -6,-44 -6,-67 0,-22 2,-44 6,-66l-148 -121c-9,-7 -11,-19 -5,-29l84 -147c6,-9 18,-14 28,-10l179 68c34,-29 73,-51 115,-67l31 -188c2,-11 11,-19 22,-19l170 0c11,0 20,8 22,19l31 188c42,16 81,38 115,67l179 -68c10,-4 22,1 28,10l84 147c6,10 4,22 -5,29l-148 121c4,22 6,44 6,66 0,23 -2,45 -6,67l148 121c9,7 11,19 5,29l-84 147c-6,9 -18,14 -28,10l-179 -68c-34,29 -73,51 -115,66l-31 189c-2,11 -11,19 -22,19z"/>
  <path class="fil2" d="M1000 1613c-187,0 -339,-152 -339,-340 0,-187 152,-339 339,-339 187,0 339,152 339,339 0,188 -152,340 -339,340z"/>
  <path class="fil3" d="M1000 1518c-135,0 -245,-110 -245,-245 0,-135 110,-244 245,-244 135,0 245,109 245,244 0,135 -110,245 -245,245z"/>
  <path class="fil4" d="M830 1369c-2,0 -5,0 -7,-1 -11,-4 -16,-16 -12,-27l58 -150c3,-8 11,-13 19,-13 8,-1 16,5 19,13l60 150c4,10 -1,22 -11,27 -11,4 -23,-1 -27,-12l-41 -101 -39 101c-3,8 -11,13 -19,13z"/>
  <path class="fil4" d="M932 1329l-86 0c-12,0 -21,-9 -21,-20 0,-12 9,-21 21,-21l86 0c11,0 20,9 20,21 0,11 -9,20 -20,20z"/>
  <path class="fil4" d="M1013 1369c-11,0 -20,-9 -20,-21l0 -149c0,-12 9,-21 20,-21l44 0c36,0 65,29 65,65 0,36 -29,65 -65,65l-23 0 0 40c0,12 -10,21 -21,21zm21 -102l23 0c13,0 24,-11 24,-24 0,-13 -11,-24 -24,-24l-23 0 0 48z"/>
  <path class="fil4" d="M1170 1365c-11,0 -21,-9 -21,-20l0 -143c0,-11 10,-20 21,-20 11,0 20,9 20,20l0 143c0,11 -9,20 -20,20z"/>
 </g>
</svg>